<?xml version="1.0" standalone="no"?>
<!DOCTYPE svg PUBLIC "-//W3C//DTD SVG 1.1//EN"
"http://www.w3.org/Graphics/SVG/1.1/DTD/svg11.dtd">

<svg width="781" height="414" view_box="0 0 781 414"
xmlns="http://www.w3.org/2000/svg"
xmlns:link="http://www.w3.org/1999/xlink">\n\n<desc>Généré par Mocodo 2.3.7 le Tue, 26 Oct 2021 06:06:40</desc>

<rect id="frame" x="0" y="0" width="781" height="414" fill="#ffffff" stroke="none" stroke-width="0"/>

<!-- Association EDITE_OUVRAGE -->
<line x1="620" y1="354" x2="485" y2="278" stroke="#d6604d" stroke-width="2"/>
<text x="557" y="345.792257685" fill="#4d4d4d" font-family="Verdana" font-size="12">1,1</text>
<line x1="737" y1="160" x2="485" y2="278" stroke="#d6604d" stroke-width="2"/>
<text x="675" y="172.05473601" fill="#4d4d4d" font-family="Verdana" font-size="12">0,N</text>
<g id="association-EDITE_OUVRAGE">
	<path d="M 531 253 a 14 14 90 0 1 14 14 V 278 h -120 V 267 a 14 14 90 0 1 14 -14" fill="#f4a582" stroke="#f4a582" stroke-width="0"/>
	<path d="M 545 278.0 v 11 a 14 14 90 0 1 -14 14 H 439 a 14 14 90 0 1 -14 -14 V 278.0 H 120" fill="#fddbc7" stroke="#fddbc7" stroke-width="0"/>
	<rect x="425" y="253" width="120" height="50" fill="none" rx="14" stroke="#d6604d" stroke-width="2"/>
	<line x1="425" y1="278" x2="545" y2="278" stroke="#d6604d" stroke-width="1"/>
	<text x="432" y="270.7" fill="#000000" font-family="Verdana" font-size="12">EDITE_OUVRAGE</text>
</g>

<!-- Association EST_PUBLIE -->
<line x1="203" y1="160" x2="348" y2="160" stroke="#d6604d" stroke-width="2"/>
<text x="247" y="177.0" fill="#4d4d4d" font-family="Verdana" font-size="12">1,1</text>
<line x1="485" y1="160" x2="348" y2="160" stroke="#d6604d" stroke-width="2"/>
<text x="408" y="177.0" fill="#4d4d4d" font-family="Verdana" font-size="12">1,N</text>
<g id="association-EST_PUBLIE">
	<path d="M 379 135 a 14 14 90 0 1 14 14 V 160 h -90 V 149 a 14 14 90 0 1 14 -14" fill="#f4a582" stroke="#f4a582" stroke-width="0"/>
	<path d="M 393 160.0 v 11 a 14 14 90 0 1 -14 14 H 317 a 14 14 90 0 1 -14 -14 V 160.0 H 90" fill="#fddbc7" stroke="#fddbc7" stroke-width="0"/>
	<rect x="303" y="135" width="90" height="50" fill="none" rx="14" stroke="#d6604d" stroke-width="2"/>
	<line x1="303" y1="160" x2="393" y2="160" stroke="#d6604d" stroke-width="1"/>
	<text x="310" y="152.7" fill="#000000" font-family="Verdana" font-size="12">EST_PUBLIE</text>
</g>

<!-- Association EDITE_REVUE -->
<line x1="485" y1="160" x2="620" y2="160" stroke="#d6604d" stroke-width="2"/>
<text x="540" y="177.0" fill="#4d4d4d" font-family="Verdana" font-size="12">1,1</text>
<line x1="737" y1="160" x2="620" y2="160" stroke="#d6604d" stroke-width="2"/>
<text x="675" y="152.0" fill="#4d4d4d" font-family="Verdana" font-size="12">0,N</text>
<g id="association-EDITE_REVUE">
	<path d="M 656 135 a 14 14 90 0 1 14 14 V 160 h -100 V 149 a 14 14 90 0 1 14 -14" fill="#f4a582" stroke="#f4a582" stroke-width="0"/>
	<path d="M 670 160.0 v 11 a 14 14 90 0 1 -14 14 H 584 a 14 14 90 0 1 -14 -14 V 160.0 H 100" fill="#fddbc7" stroke="#fddbc7" stroke-width="0"/>
	<rect x="570" y="135" width="100" height="50" fill="none" rx="14" stroke="#d6604d" stroke-width="2"/>
	<line x1="570" y1="160" x2="670" y2="160" stroke="#d6604d" stroke-width="1"/>
	<text x="577" y="152.7" fill="#000000" font-family="Verdana" font-size="12">EDITE_REVUE</text>
</g>

<!-- Association OUVRAGE_AUTEUR -->
<line x1="620" y1="354" x2="485" y2="354" stroke="#d6604d" stroke-width="2"/>
<text x="556" y="371.0" fill="#4d4d4d" font-family="Verdana" font-size="12">0,N</text>
<line x1="348" y1="354" x2="485" y2="354" stroke="#d6604d" stroke-width="2"/>
<text x="392" y="371.0" fill="#4d4d4d" font-family="Verdana" font-size="12">1,N</text>
<g id="association-OUVRAGE_AUTEUR">
	<path d="M 537 329 a 14 14 90 0 1 14 14 V 354 h -132 V 343 a 14 14 90 0 1 14 -14" fill="#f4a582" stroke="#f4a582" stroke-width="0"/>
	<path d="M 551 354.0 v 11 a 14 14 90 0 1 -14 14 H 433 a 14 14 90 0 1 -14 -14 V 354.0 H 132" fill="#fddbc7" stroke="#fddbc7" stroke-width="0"/>
	<rect x="419" y="329" width="132" height="50" fill="none" rx="14" stroke="#d6604d" stroke-width="2"/>
	<line x1="419" y1="354" x2="551" y2="354" stroke="#d6604d" stroke-width="1"/>
	<text x="426" y="346.7" fill="#000000" font-family="Verdana" font-size="12">OUVRAGE_AUTEUR</text>
</g>

<!-- Association ARTICLE_AUTEUR -->
<line x1="203" y1="160" x2="203" y2="278" stroke="#d6604d" stroke-width="2"/>
<text x="208.0" y="245" fill="#4d4d4d" font-family="Verdana" font-size="12">1,N</text>
<line x1="348" y1="354" x2="203" y2="278" stroke="#d6604d" stroke-width="2"/>
<text x="282" y="346.467882575" fill="#4d4d4d" font-family="Verdana" font-size="12">0,N</text>
<g id="association-ARTICLE_AUTEUR">
	<path d="M 251 253 a 14 14 90 0 1 14 14 V 278 h -124 V 267 a 14 14 90 0 1 14 -14" fill="#f4a582" stroke="#f4a582" stroke-width="0"/>
	<path d="M 265 278.0 v 11 a 14 14 90 0 1 -14 14 H 155 a 14 14 90 0 1 -14 -14 V 278.0 H 124" fill="#fddbc7" stroke="#fddbc7" stroke-width="0"/>
	<rect x="141" y="253" width="124" height="50" fill="none" rx="14" stroke="#d6604d" stroke-width="2"/>
	<line x1="141" y1="278" x2="265" y2="278" stroke="#d6604d" stroke-width="1"/>
	<text x="148" y="270.7" fill="#000000" font-family="Verdana" font-size="12">ARTICLE_AUTEUR</text>
</g>

<!-- Association AUTEUR_ORGANISME -->
<line x1="348" y1="354" x2="203" y2="354" stroke="#d6604d" stroke-width="2"/>
<text x="282" y="371.0" fill="#4d4d4d" font-family="Verdana" font-size="12">1,N</text>
<line x1="53" y1="354" x2="203" y2="354" stroke="#d6604d" stroke-width="2"/>
<text x="102" y="371.0" fill="#4d4d4d" font-family="Verdana" font-size="12">1,N</text>
<g id="association-AUTEUR_ORGANISME">
	<path d="M 263 329 a 14 14 90 0 1 14 14 V 354 h -148 V 343 a 14 14 90 0 1 14 -14" fill="#f4a582" stroke="#f4a582" stroke-width="0"/>
	<path d="M 277 354.0 v 11 a 14 14 90 0 1 -14 14 H 143 a 14 14 90 0 1 -14 -14 V 354.0 H 148" fill="#fddbc7" stroke="#fddbc7" stroke-width="0"/>
	<rect x="129" y="329" width="148" height="50" fill="none" rx="14" stroke="#d6604d" stroke-width="2"/>
	<line x1="129" y1="354" x2="277" y2="354" stroke="#d6604d" stroke-width="1"/>
	<text x="136" y="346.7" fill="#000000" font-family="Verdana" font-size="12">AUTEUR_ORGANISME</text>
</g>

<!-- Association ARTICLE_MOTCLES -->
<line x1="203" y1="160" x2="348" y2="51" stroke="#d6604d" stroke-width="2"/>
<text x="247" y="142.015043325" fill="#4d4d4d" font-family="Verdana" font-size="12">1,N</text>
<line x1="485" y1="51" x2="348" y2="51" stroke="#d6604d" stroke-width="2"/>
<text x="423" y="68.0" fill="#4d4d4d" font-family="Verdana" font-size="12">1,N</text>
<g id="association-ARTICLE_MOTCLES">
	<path d="M 400 26 a 14 14 90 0 1 14 14 V 51 h -132 V 40 a 14 14 90 0 1 14 -14" fill="#f4a582" stroke="#f4a582" stroke-width="0"/>
	<path d="M 414 51.0 v 11 a 14 14 90 0 1 -14 14 H 296 a 14 14 90 0 1 -14 -14 V 51.0 H 132" fill="#fddbc7" stroke="#fddbc7" stroke-width="0"/>
	<rect x="282" y="26" width="132" height="50" fill="none" rx="14" stroke="#d6604d" stroke-width="2"/>
	<line x1="282" y1="51" x2="414" y2="51" stroke="#d6604d" stroke-width="1"/>
	<text x="289" y="43.7" fill="#000000" font-family="Verdana" font-size="12">ARTICLE_MOTCLES</text>
</g>

<!-- Entity OUVRAGE -->
<g id="entity-OUVRAGE">
	<g id="frame-OUVRAGE">
		<rect x="583" y="312" width="74" height="25" fill="#bababa" stroke="#bababa" stroke-width="0"/>
		<rect x="583" y="337.0" width="74" height="59" fill="#e0e0e0" stroke="#e0e0e0" stroke-width="0"/>
		<rect x="583" y="312" width="74" height="84" fill="none" stroke="#878787" stroke-width="2"/>
		<line x1="583" y1="337" x2="657" y2="337" stroke="#878787" stroke-width="1"/>
	</g>
	<text x="589" y="329.7" fill="#000000" font-family="Verdana" font-size="12">OUVRAGE</text>
	<text x="588" y="354.8" fill="#000000" font-family="Verdana" font-size="12">idOuvrage</text>
	<line x1="588" y1="357" x2="651" y2="357" stroke="#000000" stroke-width="1"/>
	<text x="588" y="371.8" fill="#000000" font-family="Verdana" font-size="12">titre</text>
	<text x="588" y="388.8" fill="#000000" font-family="Verdana" font-size="12">annee</text>
</g>

<!-- Entity REVUE -->
<g id="entity-REVUE">
	<g id="frame-REVUE">
		<rect x="435" y="118" width="100" height="25" fill="#bababa" stroke="#bababa" stroke-width="0"/>
		<rect x="435" y="143.0" width="100" height="59" fill="#e0e0e0" stroke="#e0e0e0" stroke-width="0"/>
		<rect x="435" y="118" width="100" height="84" fill="none" stroke="#878787" stroke-width="2"/>
		<line x1="435" y1="143" x2="535" y2="143" stroke="#878787" stroke-width="1"/>
	</g>
	<text x="464" y="135.7" fill="#000000" font-family="Verdana" font-size="12">REVUE</text>
	<text x="440" y="160.8" fill="#000000" font-family="Verdana" font-size="12">idRevue</text>
	<line x1="440" y1="163" x2="489" y2="163" stroke="#000000" stroke-width="1"/>
	<text x="440" y="177.8" fill="#000000" font-family="Verdana" font-size="12">nomRevue</text>
	<text x="440" y="194.8" fill="#000000" font-family="Verdana" font-size="12">anneeCreation</text>
</g>

<!-- Entity ORGANISME -->
<g id="entity-ORGANISME">
	<g id="frame-ORGANISME">
		<rect x="9" y="303" width="88" height="25" fill="#bababa" stroke="#bababa" stroke-width="0"/>
		<rect x="9" y="328.0" width="88" height="77" fill="#e0e0e0" stroke="#e0e0e0" stroke-width="0"/>
		<rect x="9" y="303" width="88" height="102" fill="none" stroke="#878787" stroke-width="2"/>
		<line x1="9" y1="328" x2="97" y2="328" stroke="#878787" stroke-width="1"/>
	</g>
	<text x="15" y="320.7" fill="#000000" font-family="Verdana" font-size="12">ORGANISME</text>
	<text x="14" y="345.7" fill="#000000" font-family="Verdana" font-size="12">idOrganisme</text>
	<line x1="14" y1="348" x2="91" y2="348" stroke="#000000" stroke-width="1"/>
	<text x="14" y="362.8" fill="#000000" font-family="Verdana" font-size="12">nom</text>
	<text x="14" y="379.8" fill="#000000" font-family="Verdana" font-size="12">telephone</text>
	<text x="14" y="396.8" fill="#000000" font-family="Verdana" font-size="12">pays</text>
</g>

<!-- Entity AUTEUR -->
<g id="entity-AUTEUR">
	<g id="frame-AUTEUR">
		<rect x="309" y="303" width="78" height="25" fill="#bababa" stroke="#bababa" stroke-width="0"/>
		<rect x="309" y="328.0" width="78" height="77" fill="#e0e0e0" stroke="#e0e0e0" stroke-width="0"/>
		<rect x="309" y="303" width="78" height="102" fill="none" stroke="#878787" stroke-width="2"/>
		<line x1="309" y1="328" x2="387" y2="328" stroke="#878787" stroke-width="1"/>
	</g>
	<text x="323" y="320.7" fill="#000000" font-family="Verdana" font-size="12">AUTEUR</text>
	<text x="314" y="345.7" fill="#000000" font-family="Verdana" font-size="12">idAuteur</text>
	<line x1="314" y1="348" x2="366" y2="348" stroke="#000000" stroke-width="1"/>
	<text x="314" y="362.8" fill="#000000" font-family="Verdana" font-size="12">nomAuteur</text>
	<text x="314" y="379.8" fill="#000000" font-family="Verdana" font-size="12">email</text>
	<text x="314" y="396.8" fill="#000000" font-family="Verdana" font-size="12">siteWeb</text>
</g>

<!-- Entity EDITEUR -->
<g id="entity-EDITEUR">
	<g id="frame-EDITEUR">
		<rect x="702" y="101" width="70" height="25" fill="#bababa" stroke="#bababa" stroke-width="0"/>
		<rect x="702" y="126.0" width="70" height="93" fill="#e0e0e0" stroke="#e0e0e0" stroke-width="0"/>
		<rect x="702" y="101" width="70" height="118" fill="none" stroke="#878787" stroke-width="2"/>
		<line x1="702" y1="126" x2="772" y2="126" stroke="#878787" stroke-width="1"/>
	</g>
	<text x="709" y="118.7" fill="#000000" font-family="Verdana" font-size="12">EDITEUR</text>
	<text x="707" y="143.7" fill="#000000" font-family="Verdana" font-size="12">idEditeur</text>
	<line x1="707" y1="146" x2="762" y2="146" stroke="#000000" stroke-width="1"/>
	<text x="707" y="160.8" fill="#000000" font-family="Verdana" font-size="12">nom</text>
	<text x="707" y="177.8" fill="#000000" font-family="Verdana" font-size="12">telephone</text>
	<text x="707" y="194.8" fill="#000000" font-family="Verdana" font-size="12">fax</text>
	<text x="707" y="211.8" fill="#000000" font-family="Verdana" font-size="12">pays</text>
</g>

<!-- Entity ARTICLE -->
<g id="entity-ARTICLE">
	<g id="frame-ARTICLE">
		<rect x="164" y="92" width="78" height="25" fill="#bababa" stroke="#bababa" stroke-width="0"/>
		<rect x="164" y="117.0" width="78" height="111" fill="#e0e0e0" stroke="#e0e0e0" stroke-width="0"/>
		<rect x="164" y="92" width="78" height="136" fill="none" stroke="#878787" stroke-width="2"/>
		<line x1="164" y1="117" x2="242" y2="117" stroke="#878787" stroke-width="1"/>
	</g>
	<text x="176" y="109.7" fill="#000000" font-family="Verdana" font-size="12">ARTICLE</text>
	<text x="169" y="134.7" fill="#000000" font-family="Verdana" font-size="12">idArticle</text>
	<line x1="169" y1="137" x2="219" y2="137" stroke="#000000" stroke-width="1"/>
	<text x="169" y="151.7" fill="#000000" font-family="Verdana" font-size="12">titre</text>
	<text x="169" y="168.8" fill="#000000" font-family="Verdana" font-size="12">pageDebut</text>
	<text x="169" y="185.8" fill="#000000" font-family="Verdana" font-size="12">pageFin</text>
	<text x="169" y="202.8" fill="#000000" font-family="Verdana" font-size="12">volume</text>
	<text x="169" y="219.8" fill="#000000" font-family="Verdana" font-size="12">serie</text>
</g>

<!-- Entity MOTCLES -->
<g id="entity-MOTCLES">
	<g id="frame-MOTCLES">
		<rect x="450" y="9" width="70" height="25" fill="#bababa" stroke="#bababa" stroke-width="0"/>
		<rect x="450" y="34.0" width="70" height="59" fill="#e0e0e0" stroke="#e0e0e0" stroke-width="0"/>
		<rect x="450" y="9" width="70" height="84" fill="none" stroke="#878787" stroke-width="2"/>
		<line x1="450" y1="34" x2="520" y2="34" stroke="#878787" stroke-width="1"/>
	</g>
	<text x="455" y="26.7" fill="#000000" font-family="Verdana" font-size="12">MOTCLES</text>
	<text x="455" y="51.8" fill="#000000" font-family="Verdana" font-size="12">idMot</text>
	<line x1="455" y1="54" x2="489" y2="54" stroke="#000000" stroke-width="1"/>
	<text x="455" y="68.8" fill="#000000" font-family="Verdana" font-size="12">mot</text>
	<text x="455" y="85.8" fill="#000000" font-family="Verdana" font-size="12">descriptif</text>
</g>
</svg>